<svg width="32" height="32" viewBox="0 0 32 32" fill="none" xmlns="http://www.w3.org/2000/svg">
    <path fill-rule="evenodd" clip-rule="evenodd" d="M32 16C32 20.2435 30.3143 24.3131 27.3137 27.3137C24.3131 30.3143 20.2435 32 16 32C11.7565 32 7.68687 30.3143 4.68629 27.3137C1.68571 24.3131 0 20.2435 0 16C0 11.7565 1.68571 7.68687 4.68629 4.68629C7.68687 1.68571 11.7565 0 16 0C20.2435 0 24.3131 1.68571 27.3137 4.68629C30.3143 7.68687 32 11.7565 32 16ZM16.708 21.292C16.8958 21.4798 17.0013 21.7344 17.0013 22C17.0013 22.2656 16.8958 22.5202 16.708 22.708C16.5202 22.8958 16.2656 23.0013 16 23.0013C15.7344 23.0013 15.4798 22.8958 15.292 22.708L9.292 16.708C9.19887 16.6151 9.12499 16.5048 9.07457 16.3833C9.02416 16.2618 8.99821 16.1315 8.99821 16C8.99821 15.8685 9.02416 15.7382 9.07457 15.6167C9.12499 15.4952 9.19887 15.3849 9.292 15.292L15.292 9.292C15.385 9.19902 15.4954 9.12527 15.6168 9.07495C15.7383 9.02464 15.8685 8.99874 16 8.99874C16.1315 8.99874 16.2617 9.02464 16.3832 9.07495C16.5046 9.12527 16.615 9.19902 16.708 9.292C16.801 9.38498 16.8747 9.49535 16.925 9.61683C16.9754 9.73831 17.0013 9.86851 17.0013 10C17.0013 10.1315 16.9754 10.2617 16.925 10.3832C16.8747 10.5046 16.801 10.615 16.708 10.708L12.414 15H22C22.2652 15 22.5196 15.1054 22.7071 15.2929C22.8946 15.4804 23 15.7348 23 16C23 16.2652 22.8946 16.5196 22.7071 16.7071C22.5196 16.8946 22.2652 17 22 17H12.414L16.708 21.292Z" fill="#1F1F1F"/>
</svg>
