<svg width="260" height="141" viewBox="0 0 260 141" fill="none" xmlns="http://www.w3.org/2000/svg">
    <g filter="url(#filter0_d)">
        <rect x="32" y="22" width="196" height="77" rx="10" fill="black"/>
    </g>
    <path d="M94.4 44.904C93.2587 44.904 92.368 45.2987 91.728 46.088C91.088 46.8667 90.768 47.9387 90.768 49.304C90.768 50.6587 91.0667 51.7253 91.664 52.504C92.2613 53.2827 93.168 53.672 94.384 53.672C94.8747 53.672 95.344 53.6293 95.792 53.544C96.2507 53.448 96.7147 53.3253 97.184 53.176V54.664C96.736 54.8347 96.2773 54.9573 95.808 55.032C95.3493 55.1173 94.8053 55.16 94.176 55.16C93.0027 55.16 92.032 54.92 91.264 54.44C90.496 53.9493 89.92 53.2667 89.536 52.392C89.152 51.5067 88.96 50.472 88.96 49.288C88.96 48.136 89.168 47.1173 89.584 46.232C90.0107 45.3467 90.6293 44.6587 91.44 44.168C92.2507 43.6667 93.2427 43.416 94.416 43.416C94.992 43.416 95.552 43.48 96.096 43.608C96.6507 43.7253 97.1573 43.896 97.616 44.12L96.976 45.56C96.6027 45.3893 96.1973 45.24 95.76 45.112C95.3333 44.9733 94.88 44.904 94.4 44.904ZM104.717 46.376H106.573L102.973 50.52L106.877 55H104.925L101.149 50.632V55H99.453V46.376H101.149V50.568L104.717 46.376ZM111.688 46.216C112.765 46.216 113.57 46.456 114.104 46.936C114.648 47.4053 114.92 48.1467 114.92 49.16V55H113.72L113.384 53.8H113.32C112.946 54.2693 112.552 54.616 112.136 54.84C111.73 55.0533 111.165 55.16 110.44 55.16C109.661 55.16 109.016 54.952 108.504 54.536C107.992 54.1093 107.736 53.448 107.736 52.552C107.736 51.6773 108.066 51.0107 108.728 50.552C109.389 50.0933 110.408 49.8427 111.784 49.8L113.256 49.752V49.272C113.256 48.6427 113.112 48.2 112.824 47.944C112.536 47.6773 112.13 47.544 111.608 47.544C111.17 47.544 110.749 47.608 110.344 47.736C109.938 47.864 109.549 48.0187 109.176 48.2L108.632 46.968C109.037 46.7547 109.501 46.5787 110.024 46.44C110.557 46.2907 111.112 46.216 111.688 46.216ZM112.088 50.888C111.106 50.9307 110.424 51.096 110.04 51.384C109.666 51.6613 109.48 52.056 109.48 52.568C109.48 53.016 109.613 53.3413 109.88 53.544C110.146 53.7467 110.493 53.848 110.92 53.848C111.581 53.848 112.13 53.6613 112.568 53.288C113.016 52.9147 113.24 52.3547 113.24 51.608V50.856L112.088 50.888ZM119.019 49.528C119.019 50.4347 119.51 50.888 120.491 50.888C121.003 50.888 121.472 50.8187 121.899 50.68C122.326 50.5307 122.758 50.3333 123.195 50.088V46.376H124.891V55H123.195V51.272C122.747 51.56 122.288 51.7893 121.819 51.96C121.35 52.1307 120.795 52.216 120.155 52.216C119.27 52.216 118.576 51.9867 118.075 51.528C117.574 51.0693 117.323 50.4293 117.323 49.608V46.376H119.019V49.528ZM130.891 46.216C131.968 46.216 132.773 46.456 133.307 46.936C133.851 47.4053 134.123 48.1467 134.123 49.16V55H132.923L132.587 53.8H132.523C132.149 54.2693 131.755 54.616 131.339 54.84C130.933 55.0533 130.368 55.16 129.643 55.16C128.864 55.16 128.219 54.952 127.707 54.536C127.195 54.1093 126.939 53.448 126.939 52.552C126.939 51.6773 127.269 51.0107 127.931 50.552C128.592 50.0933 129.611 49.8427 130.987 49.8L132.459 49.752V49.272C132.459 48.6427 132.315 48.2 132.027 47.944C131.739 47.6773 131.333 47.544 130.811 47.544C130.373 47.544 129.952 47.608 129.547 47.736C129.141 47.864 128.752 48.0187 128.379 48.2L127.835 46.968C128.24 46.7547 128.704 46.5787 129.227 46.44C129.76 46.2907 130.315 46.216 130.891 46.216ZM131.291 50.888C130.309 50.9307 129.627 51.096 129.243 51.384C128.869 51.6613 128.683 52.056 128.683 52.568C128.683 53.016 128.816 53.3413 129.083 53.544C129.349 53.7467 129.696 53.848 130.123 53.848C130.784 53.848 131.333 53.6613 131.771 53.288C132.219 52.9147 132.443 52.3547 132.443 51.608V50.856L131.291 50.888ZM143.038 47.736H140.222V55H138.542V47.736H135.742V46.376H143.038V47.736ZM148.703 49.848C151.049 49.848 152.223 50.6747 152.223 52.328C152.223 53.1387 151.94 53.7893 151.375 54.28C150.82 54.76 149.924 55 148.687 55H144.719V46.376H146.415V49.848H148.703ZM150.527 52.392C150.527 51.9333 150.356 51.6133 150.015 51.432C149.673 51.2507 149.193 51.16 148.575 51.16H146.415V53.72H148.607C149.161 53.72 149.62 53.6187 149.983 53.416C150.345 53.2133 150.527 52.872 150.527 52.392ZM165.621 48.568C165.621 49.0907 165.461 49.5067 165.141 49.816C164.831 50.1253 164.415 50.328 163.893 50.424V50.488C164.447 50.5627 164.917 50.76 165.301 51.08C165.695 51.3893 165.893 51.848 165.893 52.456C165.893 53.192 165.61 53.8 165.045 54.28C164.49 54.76 163.573 55 162.293 55H158.469V46.376H162.293C162.922 46.376 163.487 46.4453 163.989 46.584C164.49 46.7227 164.885 46.952 165.173 47.272C165.471 47.592 165.621 48.024 165.621 48.568ZM163.893 48.76C163.893 48.3973 163.754 48.1307 163.477 47.96C163.21 47.7787 162.783 47.688 162.197 47.688H160.165V49.864H161.941C163.242 49.864 163.893 49.496 163.893 48.76ZM164.133 52.424C164.133 51.976 163.957 51.656 163.605 51.464C163.263 51.2613 162.762 51.16 162.101 51.16H160.165V53.72H162.133C162.762 53.72 163.253 53.624 163.605 53.432C163.957 53.2293 164.133 52.8933 164.133 52.424ZM99.88 77L98.208 72.468H92.136L90.464 77H88L93.962 61.226H96.426L102.366 77H99.88ZM95.964 65.978C95.92 65.8167 95.8393 65.5747 95.722 65.252C95.6193 64.9293 95.5167 64.592 95.414 64.24C95.3113 63.888 95.2307 63.602 95.172 63.382C95.0547 63.8367 94.9227 64.3207 94.776 64.834C94.6293 65.3473 94.512 65.7287 94.424 65.978L92.84 70.4H97.548L95.964 65.978ZM110.139 64.922C111.561 64.922 112.705 65.4353 113.571 66.462C114.451 67.4887 114.891 69.0213 114.891 71.06C114.891 73.0693 114.451 74.602 113.571 75.658C112.691 76.6993 111.539 77.22 110.117 77.22C109.207 77.22 108.467 77.0587 107.895 76.736C107.337 76.3987 106.89 76.0027 106.553 75.548H106.399C106.443 75.812 106.479 76.1273 106.509 76.494C106.538 76.846 106.553 77.1613 106.553 77.44V82.28H104.221V65.142H106.113L106.443 66.726H106.553C106.89 66.2273 107.337 65.802 107.895 65.45C108.467 65.098 109.215 64.922 110.139 64.922ZM109.589 66.836C108.489 66.836 107.711 67.1587 107.257 67.804C106.802 68.4347 106.567 69.3953 106.553 70.686V71.038C106.553 72.402 106.773 73.458 107.213 74.206C107.653 74.9393 108.459 75.306 109.633 75.306C110.601 75.306 111.319 74.91 111.789 74.118C112.258 73.326 112.493 72.292 112.493 71.016C112.493 69.7253 112.258 68.706 111.789 67.958C111.319 67.21 110.586 66.836 109.589 66.836ZM123.781 64.922C125.204 64.922 126.348 65.4353 127.213 66.462C128.093 67.4887 128.533 69.0213 128.533 71.06C128.533 73.0693 128.093 74.602 127.213 75.658C126.333 76.6993 125.182 77.22 123.759 77.22C122.85 77.22 122.109 77.0587 121.537 76.736C120.98 76.3987 120.532 76.0027 120.195 75.548H120.041C120.085 75.812 120.122 76.1273 120.151 76.494C120.18 76.846 120.195 77.1613 120.195 77.44V82.28H117.863V65.142H119.755L120.085 66.726H120.195C120.532 66.2273 120.98 65.802 121.537 65.45C122.109 65.098 122.857 64.922 123.781 64.922ZM123.231 66.836C122.131 66.836 121.354 67.1587 120.899 67.804C120.444 68.4347 120.21 69.3953 120.195 70.686V71.038C120.195 72.402 120.415 73.458 120.855 74.206C121.295 74.9393 122.102 75.306 123.275 75.306C124.243 75.306 124.962 74.91 125.431 74.118C125.9 73.326 126.135 72.292 126.135 71.016C126.135 69.7253 125.9 68.706 125.431 67.958C124.962 67.21 124.228 66.836 123.231 66.836ZM140.79 72.754C140.79 74.1473 140.284 75.24 139.272 76.032C138.26 76.824 136.874 77.22 135.114 77.22C134.263 77.22 133.456 77.1467 132.694 77C131.946 76.868 131.308 76.67 130.78 76.406V74.162C131.366 74.426 132.056 74.668 132.848 74.888C133.64 75.0933 134.446 75.196 135.268 75.196C136.324 75.196 137.116 74.9907 137.644 74.58C138.172 74.1693 138.436 73.6193 138.436 72.93C138.436 72.446 138.311 72.0427 138.062 71.72C137.827 71.3827 137.453 71.0747 136.94 70.796C136.426 70.5173 135.752 70.2093 134.916 69.872C134.138 69.5787 133.449 69.234 132.848 68.838C132.261 68.442 131.799 67.9507 131.462 67.364C131.124 66.7773 130.956 66.0587 130.956 65.208C130.956 63.9173 131.425 62.9053 132.364 62.172C133.302 61.4387 134.534 61.072 136.06 61.072C136.91 61.072 137.695 61.16 138.414 61.336C139.147 61.4973 139.844 61.7247 140.504 62.018L139.756 63.976C139.154 63.7267 138.538 63.5213 137.908 63.36C137.292 63.1987 136.654 63.118 135.994 63.118C135.128 63.118 134.468 63.3087 134.014 63.69C133.559 64.0713 133.332 64.57 133.332 65.186C133.332 65.67 133.442 66.0807 133.662 66.418C133.882 66.7407 134.234 67.034 134.718 67.298C135.202 67.562 135.84 67.8553 136.632 68.178C137.512 68.53 138.26 68.904 138.876 69.3C139.506 69.6813 139.983 70.1507 140.306 70.708C140.628 71.2507 140.79 71.9327 140.79 72.754ZM147.869 75.328C148.177 75.328 148.493 75.306 148.815 75.262C149.138 75.2033 149.417 75.13 149.651 75.042V76.802C149.387 76.9193 149.043 77.0147 148.617 77.088C148.207 77.176 147.789 77.22 147.363 77.22C146.718 77.22 146.124 77.11 145.581 76.89C145.039 76.67 144.606 76.2887 144.283 75.746C143.975 75.2033 143.821 74.448 143.821 73.48V66.924H142.171V65.868L143.909 64.988L144.723 62.48H146.153V65.142H149.541V66.924H146.153V73.436C146.153 74.0813 146.307 74.558 146.615 74.866C146.938 75.174 147.356 75.328 147.869 75.328ZM162.473 71.06C162.473 73.0253 161.967 74.5433 160.955 75.614C159.943 76.6847 158.579 77.22 156.863 77.22C155.793 77.22 154.839 76.978 154.003 76.494C153.182 76.01 152.529 75.3133 152.045 74.404C151.576 73.48 151.341 72.3653 151.341 71.06C151.341 69.0947 151.84 67.584 152.837 66.528C153.835 65.4573 155.199 64.922 156.929 64.922C158.015 64.922 158.968 65.164 159.789 65.648C160.625 66.1173 161.278 66.8067 161.747 67.716C162.231 68.6253 162.473 69.74 162.473 71.06ZM153.739 71.06C153.739 72.3947 153.989 73.436 154.487 74.184C155.001 74.932 155.807 75.306 156.907 75.306C158.007 75.306 158.807 74.932 159.305 74.184C159.819 73.436 160.075 72.3947 160.075 71.06C160.075 69.7107 159.819 68.6767 159.305 67.958C158.792 67.2247 157.985 66.858 156.885 66.858C155.785 66.858 154.986 67.2247 154.487 67.958C153.989 68.6767 153.739 69.7107 153.739 71.06ZM171.282 64.922C171.487 64.922 171.707 64.9367 171.942 64.966C172.191 64.9807 172.404 65.0027 172.58 65.032L172.338 67.21C171.956 67.1073 171.56 67.056 171.15 67.056C170.563 67.056 170.006 67.2027 169.478 67.496C168.964 67.7893 168.546 68.2147 168.224 68.772C167.916 69.3147 167.762 69.9747 167.762 70.752V77H165.43V65.142H167.278L167.586 67.254H167.674C168.055 66.6233 168.546 66.0807 169.148 65.626C169.749 65.1567 170.46 64.922 171.282 64.922ZM179.01 64.922C180.564 64.922 181.789 65.406 182.684 66.374C183.578 67.3273 184.026 68.6327 184.026 70.29V71.566H176.062C176.091 72.7833 176.406 73.7147 177.008 74.36C177.624 75.0053 178.482 75.328 179.582 75.328C180.344 75.328 181.019 75.262 181.606 75.13C182.207 74.9833 182.823 74.7707 183.454 74.492V76.428C182.852 76.692 182.251 76.89 181.65 77.022C181.048 77.154 180.33 77.22 179.494 77.22C178.335 77.22 177.316 76.9927 176.436 76.538C175.57 76.0833 174.888 75.4087 174.39 74.514C173.906 73.6047 173.664 72.49 173.664 71.17C173.664 69.8353 173.884 68.706 174.324 67.782C174.778 66.858 175.402 66.154 176.194 65.67C177 65.1713 177.939 64.922 179.01 64.922ZM179.01 66.726C178.174 66.726 177.499 66.9973 176.986 67.54C176.487 68.0827 176.194 68.8527 176.106 69.85H181.694C181.679 68.926 181.452 68.178 181.012 67.606C180.586 67.0193 179.919 66.726 179.01 66.726Z" fill="white"/>
    <path d="M68.6619 60.4847C68.6466 57.8891 69.8255 55.9328 72.206 54.4904C70.8746 52.5874 68.8603 51.5408 66.2051 51.339C63.691 51.1411 60.9404 52.8005 59.9332 52.8005C58.8689 52.8005 56.4349 51.4076 54.5198 51.4076C50.5675 51.4685 46.3672 54.5513 46.3672 60.8235C46.3672 62.6769 46.7067 64.5913 47.3858 66.5628C48.2937 69.1585 51.567 75.5182 54.9814 75.4154C56.7668 75.3736 58.0296 74.1519 60.3529 74.1519C62.6075 74.1519 63.7749 75.4154 65.7663 75.4154C69.2113 75.366 72.1717 69.5847 73.0339 66.9815C68.4139 64.8083 68.6619 60.6179 68.6619 60.4847ZM64.6524 48.8766C66.5865 46.5854 66.4111 44.4998 66.3538 43.75C64.6447 43.849 62.6686 44.9108 61.5432 46.2163C60.3033 47.6168 59.5746 49.3485 59.731 51.301C61.5775 51.4418 63.2637 50.4941 64.6524 48.8766Z" fill="white"/>
    <defs>
        <filter id="filter0_d" x="0" y="0" width="260" height="141" filterUnits="userSpaceOnUse" color-interpolation-filters="sRGB">
            <feFlood flood-opacity="0" result="BackgroundImageFix"/>
            <feColorMatrix in="SourceAlpha" type="matrix" values="0 0 0 0 0 0 0 0 0 0 0 0 0 0 0 0 0 0 127 0"/>
            <feOffset dy="10"/>
            <feGaussianBlur stdDeviation="16"/>
            <feColorMatrix type="matrix" values="0 0 0 0 0 0 0 0 0 0 0 0 0 0 0 0 0 0 0.08 0"/>
            <feBlend mode="normal" in2="BackgroundImageFix" result="effect1_dropShadow"/>
            <feBlend mode="normal" in="SourceGraphic" in2="effect1_dropShadow" result="shape"/>
        </filter>
    </defs>
</svg>
