<svg width="24" height="24" viewBox="0 0 24 24" fill="none" xmlns="http://www.w3.org/2000/svg">
    <path d="M23.798 6.47177C23.6496 6.25403 23.4504 6.14516 23.2005 6.14516H7.29015L6.07168 1.8629C5.96233 1.47581 5.81393 1.14516 5.62648 0.870968C5.43902 0.596774 5.23985 0.403226 5.02896 0.290323C4.81807 0.177419 4.63452 0.100806 4.47831 0.0604839C4.32209 0.0201613 4.16588 0 4.00967 0H0.799482C0.596404 0 0.42457 0.0725806 0.283978 0.217742C0.143386 0.362903 0.0730896 0.548387 0.0730896 0.774194C0.0730896 0.903226 0.104332 1.02823 0.166818 1.14919C0.229303 1.27016 0.319126 1.3629 0.436286 1.42742C0.553446 1.49194 0.674511 1.52419 0.799482 1.52419H4.00967C4.07215 1.52419 4.13073 1.53226 4.18541 1.54839C4.24008 1.56452 4.31428 1.63306 4.40801 1.75403C4.50174 1.875 4.57985 2.05645 4.64233 2.29839L8.7898 18.0242C8.82104 18.121 8.87181 18.2137 8.94211 18.3024C9.0124 18.3911 9.09441 18.4597 9.18814 18.5081C9.28187 18.5565 9.38341 18.5806 9.49276 18.5806H19.6154C19.7716 18.5806 19.9161 18.5323 20.0489 18.4355C20.1817 18.3387 20.2715 18.2177 20.3183 18.0726L23.9034 7.18548C23.9816 6.92742 23.9464 6.68952 23.798 6.47177ZM19.0999 17.0323H10.0786L7.68849 7.69355H22.1226L19.0999 17.0323ZM17.6237 20.129C17.1082 20.129 16.6669 20.3185 16.2998 20.6976C15.9327 21.0766 15.7491 21.5323 15.7491 22.0645C15.7491 22.5968 15.9327 23.0524 16.2998 23.4315C16.6669 23.8105 17.1082 24 17.6237 24C18.1392 24 18.5805 23.8105 18.9476 23.4315C19.3147 23.0524 19.4982 22.5968 19.4982 22.0645C19.4982 21.5323 19.3147 21.0766 18.9476 20.6976C18.5805 20.3185 18.1392 20.129 17.6237 20.129ZM10.8752 20.129C10.5316 20.129 10.2152 20.2177 9.92625 20.3952C9.63725 20.5726 9.41075 20.8065 9.24672 21.0968C9.0827 21.3871 9.00068 21.7097 9.00068 22.0645C9.00068 22.5968 9.18424 23.0524 9.55134 23.4315C9.91844 23.8105 10.3597 24 10.8752 24C11.3907 24 11.8321 23.8105 12.1992 23.4315C12.5663 23.0524 12.7498 22.5968 12.7498 22.0645C12.7498 21.9355 12.7381 21.8065 12.7147 21.6774C12.6912 21.5484 12.6561 21.4274 12.6092 21.3145C12.5624 21.2016 12.5038 21.0927 12.4335 20.9879C12.3632 20.8831 12.2851 20.7863 12.1992 20.6976C12.1132 20.6089 12.0195 20.5282 11.918 20.4556C11.8164 20.3831 11.711 20.3226 11.6016 20.2742C11.4923 20.2258 11.3751 20.1895 11.2502 20.1653C11.1252 20.1411 11.0002 20.129 10.8752 20.129Z" fill="#1F1F1F"/>
</svg>
