<svg width="260" height="141" viewBox="0 0 260 141" fill="none" xmlns="http://www.w3.org/2000/svg">
    <g filter="url(#filter0_d)">
        <rect x="32" y="22" width="196" height="77" rx="10" fill="white"/>
    </g>
    <path d="M94.4 44.904C93.2587 44.904 92.368 45.2987 91.728 46.088C91.088 46.8667 90.768 47.9387 90.768 49.304C90.768 50.6587 91.0667 51.7253 91.664 52.504C92.2613 53.2827 93.168 53.672 94.384 53.672C94.8747 53.672 95.344 53.6293 95.792 53.544C96.2507 53.448 96.7147 53.3253 97.184 53.176V54.664C96.736 54.8347 96.2773 54.9573 95.808 55.032C95.3493 55.1173 94.8053 55.16 94.176 55.16C93.0027 55.16 92.032 54.92 91.264 54.44C90.496 53.9493 89.92 53.2667 89.536 52.392C89.152 51.5067 88.96 50.472 88.96 49.288C88.96 48.136 89.168 47.1173 89.584 46.232C90.0107 45.3467 90.6293 44.6587 91.44 44.168C92.2507 43.6667 93.2427 43.416 94.416 43.416C94.992 43.416 95.552 43.48 96.096 43.608C96.6507 43.7253 97.1573 43.896 97.616 44.12L96.976 45.56C96.6027 45.3893 96.1973 45.24 95.76 45.112C95.3333 44.9733 94.88 44.904 94.4 44.904ZM104.717 46.376H106.573L102.973 50.52L106.877 55H104.925L101.149 50.632V55H99.453V46.376H101.149V50.568L104.717 46.376ZM111.688 46.216C112.765 46.216 113.57 46.456 114.104 46.936C114.648 47.4053 114.92 48.1467 114.92 49.16V55H113.72L113.384 53.8H113.32C112.946 54.2693 112.552 54.616 112.136 54.84C111.73 55.0533 111.165 55.16 110.44 55.16C109.661 55.16 109.016 54.952 108.504 54.536C107.992 54.1093 107.736 53.448 107.736 52.552C107.736 51.6773 108.066 51.0107 108.728 50.552C109.389 50.0933 110.408 49.8427 111.784 49.8L113.256 49.752V49.272C113.256 48.6427 113.112 48.2 112.824 47.944C112.536 47.6773 112.13 47.544 111.608 47.544C111.17 47.544 110.749 47.608 110.344 47.736C109.938 47.864 109.549 48.0187 109.176 48.2L108.632 46.968C109.037 46.7547 109.501 46.5787 110.024 46.44C110.557 46.2907 111.112 46.216 111.688 46.216ZM112.088 50.888C111.106 50.9307 110.424 51.096 110.04 51.384C109.666 51.6613 109.48 52.056 109.48 52.568C109.48 53.016 109.613 53.3413 109.88 53.544C110.146 53.7467 110.493 53.848 110.92 53.848C111.581 53.848 112.13 53.6613 112.568 53.288C113.016 52.9147 113.24 52.3547 113.24 51.608V50.856L112.088 50.888ZM119.019 49.528C119.019 50.4347 119.51 50.888 120.491 50.888C121.003 50.888 121.472 50.8187 121.899 50.68C122.326 50.5307 122.758 50.3333 123.195 50.088V46.376H124.891V55H123.195V51.272C122.747 51.56 122.288 51.7893 121.819 51.96C121.35 52.1307 120.795 52.216 120.155 52.216C119.27 52.216 118.576 51.9867 118.075 51.528C117.574 51.0693 117.323 50.4293 117.323 49.608V46.376H119.019V49.528ZM130.891 46.216C131.968 46.216 132.773 46.456 133.307 46.936C133.851 47.4053 134.123 48.1467 134.123 49.16V55H132.923L132.587 53.8H132.523C132.149 54.2693 131.755 54.616 131.339 54.84C130.933 55.0533 130.368 55.16 129.643 55.16C128.864 55.16 128.219 54.952 127.707 54.536C127.195 54.1093 126.939 53.448 126.939 52.552C126.939 51.6773 127.269 51.0107 127.931 50.552C128.592 50.0933 129.611 49.8427 130.987 49.8L132.459 49.752V49.272C132.459 48.6427 132.315 48.2 132.027 47.944C131.739 47.6773 131.333 47.544 130.811 47.544C130.373 47.544 129.952 47.608 129.547 47.736C129.141 47.864 128.752 48.0187 128.379 48.2L127.835 46.968C128.24 46.7547 128.704 46.5787 129.227 46.44C129.76 46.2907 130.315 46.216 130.891 46.216ZM131.291 50.888C130.309 50.9307 129.627 51.096 129.243 51.384C128.869 51.6613 128.683 52.056 128.683 52.568C128.683 53.016 128.816 53.3413 129.083 53.544C129.349 53.7467 129.696 53.848 130.123 53.848C130.784 53.848 131.333 53.6613 131.771 53.288C132.219 52.9147 132.443 52.3547 132.443 51.608V50.856L131.291 50.888ZM143.038 47.736H140.222V55H138.542V47.736H135.742V46.376H143.038V47.736ZM148.703 49.848C151.049 49.848 152.223 50.6747 152.223 52.328C152.223 53.1387 151.94 53.7893 151.375 54.28C150.82 54.76 149.924 55 148.687 55H144.719V46.376H146.415V49.848H148.703ZM150.527 52.392C150.527 51.9333 150.356 51.6133 150.015 51.432C149.673 51.2507 149.193 51.16 148.575 51.16H146.415V53.72H148.607C149.161 53.72 149.62 53.6187 149.983 53.416C150.345 53.2133 150.527 52.872 150.527 52.392ZM165.621 48.568C165.621 49.0907 165.461 49.5067 165.141 49.816C164.831 50.1253 164.415 50.328 163.893 50.424V50.488C164.447 50.5627 164.917 50.76 165.301 51.08C165.695 51.3893 165.893 51.848 165.893 52.456C165.893 53.192 165.61 53.8 165.045 54.28C164.49 54.76 163.573 55 162.293 55H158.469V46.376H162.293C162.922 46.376 163.487 46.4453 163.989 46.584C164.49 46.7227 164.885 46.952 165.173 47.272C165.471 47.592 165.621 48.024 165.621 48.568ZM163.893 48.76C163.893 48.3973 163.754 48.1307 163.477 47.96C163.21 47.7787 162.783 47.688 162.197 47.688H160.165V49.864H161.941C163.242 49.864 163.893 49.496 163.893 48.76ZM164.133 52.424C164.133 51.976 163.957 51.656 163.605 51.464C163.263 51.2613 162.762 51.16 162.101 51.16H160.165V53.72H162.133C162.762 53.72 163.253 53.624 163.605 53.432C163.957 53.2293 164.133 52.8933 164.133 52.424ZM96.646 68.552H102.322V76.384C101.486 76.6627 100.628 76.868 99.748 77C98.8827 77.1467 97.8927 77.22 96.778 77.22C94.3727 77.22 92.5247 76.5087 91.234 75.086C89.958 73.6487 89.32 71.6687 89.32 69.146C89.32 67.5033 89.6353 66.0807 90.266 64.878C90.9113 63.6607 91.8427 62.722 93.06 62.062C94.2773 61.402 95.7513 61.072 97.482 61.072C98.3473 61.072 99.176 61.16 99.968 61.336C100.76 61.4973 101.493 61.7247 102.168 62.018L101.31 63.998C100.767 63.7633 100.159 63.558 99.484 63.382C98.824 63.206 98.1273 63.118 97.394 63.118C95.6487 63.118 94.2773 63.6607 93.28 64.746C92.2827 65.8313 91.784 67.3053 91.784 69.168C91.784 70.356 91.9673 71.4047 92.334 72.314C92.7007 73.2087 93.28 73.9127 94.072 74.426C94.864 74.9393 95.898 75.196 97.174 75.196C97.8047 75.196 98.3327 75.1667 98.758 75.108C99.198 75.0347 99.6013 74.954 99.968 74.866V70.598H96.646V68.552ZM116.26 71.06C116.26 73.0253 115.754 74.5433 114.742 75.614C113.73 76.6847 112.366 77.22 110.65 77.22C109.58 77.22 108.626 76.978 107.79 76.494C106.969 76.01 106.316 75.3133 105.832 74.404C105.363 73.48 105.128 72.3653 105.128 71.06C105.128 69.0947 105.627 67.584 106.624 66.528C107.622 65.4573 108.986 64.922 110.716 64.922C111.802 64.922 112.755 65.164 113.576 65.648C114.412 66.1173 115.065 66.8067 115.534 67.716C116.018 68.6253 116.26 69.74 116.26 71.06ZM107.526 71.06C107.526 72.3947 107.776 73.436 108.274 74.184C108.788 74.932 109.594 75.306 110.694 75.306C111.794 75.306 112.594 74.932 113.092 74.184C113.606 73.436 113.862 72.3947 113.862 71.06C113.862 69.7107 113.606 68.6767 113.092 67.958C112.579 67.2247 111.772 66.858 110.672 66.858C109.572 66.858 108.773 67.2247 108.274 67.958C107.776 68.6767 107.526 69.7107 107.526 71.06ZM129.667 71.06C129.667 73.0253 129.161 74.5433 128.149 75.614C127.137 76.6847 125.773 77.22 124.057 77.22C122.986 77.22 122.033 76.978 121.197 76.494C120.375 76.01 119.723 75.3133 119.239 74.404C118.769 73.48 118.535 72.3653 118.535 71.06C118.535 69.0947 119.033 67.584 120.031 66.528C121.028 65.4573 122.392 64.922 124.123 64.922C125.208 64.922 126.161 65.164 126.983 65.648C127.819 66.1173 128.471 66.8067 128.941 67.716C129.425 68.6253 129.667 69.74 129.667 71.06ZM120.933 71.06C120.933 72.3947 121.182 73.436 121.681 74.184C122.194 74.932 123.001 75.306 124.101 75.306C125.201 75.306 126 74.932 126.499 74.184C127.012 73.436 127.269 72.3947 127.269 71.06C127.269 69.7107 127.012 68.6767 126.499 67.958C125.985 67.2247 125.179 66.858 124.079 66.858C122.979 66.858 122.179 67.2247 121.681 67.958C121.182 68.6767 120.933 69.7107 120.933 71.06ZM136.715 64.922C138.284 64.922 139.494 65.516 140.345 66.704H140.455L140.719 65.142H142.611V77.154C142.611 78.8407 142.156 80.1167 141.247 80.982C140.352 81.8473 138.981 82.28 137.133 82.28C136.268 82.28 135.476 82.2213 134.757 82.104C134.053 81.9867 133.4 81.8033 132.799 81.554V79.508C134.06 80.124 135.549 80.432 137.265 80.432C138.233 80.432 138.981 80.1533 139.509 79.596C140.037 79.0533 140.301 78.2833 140.301 77.286V76.89C140.301 76.6993 140.308 76.45 140.323 76.142C140.338 75.834 140.352 75.5993 140.367 75.438H140.279C139.883 76.054 139.384 76.5087 138.783 76.802C138.182 77.0807 137.492 77.22 136.715 77.22C135.219 77.22 134.046 76.6847 133.195 75.614C132.359 74.5287 131.941 73.0253 131.941 71.104C131.941 69.1973 132.359 67.694 133.195 66.594C134.046 65.4793 135.219 64.922 136.715 64.922ZM137.199 66.858C136.275 66.858 135.564 67.2247 135.065 67.958C134.581 68.6913 134.339 69.7473 134.339 71.126C134.339 72.5047 134.581 73.5533 135.065 74.272C135.564 74.9907 136.29 75.35 137.243 75.35C138.328 75.35 139.12 75.0567 139.619 74.47C140.132 73.8687 140.389 72.8933 140.389 71.544V71.104C140.389 69.5933 140.132 68.508 139.619 67.848C139.106 67.188 138.299 66.858 137.199 66.858ZM148.597 77H146.265V60.28H148.597V77ZM156.924 64.922C158.478 64.922 159.703 65.406 160.598 66.374C161.492 67.3273 161.94 68.6327 161.94 70.29V71.566H153.976C154.005 72.7833 154.32 73.7147 154.922 74.36C155.538 75.0053 156.396 75.328 157.496 75.328C158.258 75.328 158.933 75.262 159.52 75.13C160.121 74.9833 160.737 74.7707 161.368 74.492V76.428C160.766 76.692 160.165 76.89 159.564 77.022C158.962 77.154 158.244 77.22 157.408 77.22C156.249 77.22 155.23 76.9927 154.35 76.538C153.484 76.0833 152.802 75.4087 152.304 74.514C151.82 73.6047 151.578 72.49 151.578 71.17C151.578 69.8353 151.798 68.706 152.238 67.782C152.692 66.858 153.316 66.154 154.108 65.67C154.914 65.1713 155.853 64.922 156.924 64.922ZM156.924 66.726C156.088 66.726 155.413 66.9973 154.9 67.54C154.401 68.0827 154.108 68.8527 154.02 69.85H159.608C159.593 68.926 159.366 68.178 158.926 67.606C158.5 67.0193 157.833 66.726 156.924 66.726ZM175.228 61.292C177.282 61.292 178.778 61.71 179.716 62.546C180.655 63.3673 181.124 64.5187 181.124 66C181.124 66.88 180.926 67.7013 180.53 68.464C180.149 69.2267 179.504 69.85 178.594 70.334C177.685 70.8033 176.453 71.038 174.898 71.038H173.204V77H170.828V61.292H175.228ZM175.052 63.294H173.204V69.036H174.634C175.969 69.036 176.974 68.8087 177.648 68.354C178.338 67.8993 178.682 67.144 178.682 66.088C178.682 65.1493 178.389 64.4527 177.802 63.998C177.216 63.5287 176.299 63.294 175.052 63.294ZM186.367 77H184.035V60.28H186.367V77ZM194.627 64.922C196.108 64.922 197.216 65.252 197.949 65.912C198.697 66.5573 199.071 67.5767 199.071 68.97V77H197.421L196.959 75.35H196.871C196.358 75.9953 195.815 76.472 195.243 76.78C194.686 77.0733 193.908 77.22 192.911 77.22C191.84 77.22 190.953 76.934 190.249 76.362C189.545 75.7753 189.193 74.866 189.193 73.634C189.193 72.4313 189.648 71.5147 190.557 70.884C191.466 70.2533 192.867 69.9087 194.759 69.85L196.783 69.784V69.124C196.783 68.2587 196.585 67.65 196.189 67.298C195.793 66.9313 195.236 66.748 194.517 66.748C193.916 66.748 193.336 66.836 192.779 67.012C192.222 67.188 191.686 67.4007 191.173 67.65L190.425 65.956C190.982 65.6627 191.62 65.4207 192.339 65.23C193.072 65.0247 193.835 64.922 194.627 64.922ZM195.177 71.346C193.828 71.4047 192.889 71.632 192.361 72.028C191.848 72.4093 191.591 72.952 191.591 73.656C191.591 74.272 191.774 74.7193 192.141 74.998C192.508 75.2767 192.984 75.416 193.571 75.416C194.48 75.416 195.236 75.1593 195.837 74.646C196.453 74.1327 196.761 73.3627 196.761 72.336V71.302L195.177 71.346ZM200.858 65.142H203.366L205.83 71.874C206.021 72.3873 206.182 72.886 206.314 73.37C206.461 73.8393 206.571 74.3013 206.644 74.756H206.732C206.805 74.3747 206.915 73.9273 207.062 73.414C207.223 72.9007 207.399 72.38 207.59 71.852L209.922 65.142H212.43L207.348 78.606C206.923 79.75 206.351 80.6447 205.632 81.29C204.928 81.95 204.004 82.28 202.86 82.28C202.493 82.28 202.178 82.258 201.914 82.214C201.65 82.1847 201.423 82.148 201.232 82.104V80.256C201.379 80.2853 201.569 80.3147 201.804 80.344C202.039 80.3733 202.281 80.388 202.53 80.388C203.205 80.388 203.747 80.19 204.158 79.794C204.569 79.4127 204.891 78.9067 205.126 78.276L205.61 77L200.858 65.142Z" fill="#1F1F1F"/>
    <path d="M63.4141 58.3047L46.1719 41.0156L68.1094 53.6094L63.4141 58.3047ZM41.6719 40C40.6562 40.5312 39.9766 41.5 39.9766 42.7578V77.2344C39.9766 78.4922 40.6562 79.4609 41.6719 79.9922L61.7188 59.9922L41.6719 40ZM74.8906 57.625L70.2891 54.9609L65.1562 60L70.2891 65.0391L74.9844 62.375C76.3906 61.2578 76.3906 58.7422 74.8906 57.625ZM46.1719 78.9844L68.1094 66.3906L63.4141 61.6953L46.1719 78.9844Z" fill="black"/>
    <defs>
        <filter id="filter0_d" x="0" y="0" width="260" height="141" filterUnits="userSpaceOnUse" color-interpolation-filters="sRGB">
            <feFlood flood-opacity="0" result="BackgroundImageFix"/>
            <feColorMatrix in="SourceAlpha" type="matrix" values="0 0 0 0 0 0 0 0 0 0 0 0 0 0 0 0 0 0 127 0"/>
            <feOffset dy="10"/>
            <feGaussianBlur stdDeviation="16"/>
            <feColorMatrix type="matrix" values="0 0 0 0 0 0 0 0 0 0 0 0 0 0 0 0 0 0 0.08 0"/>
            <feBlend mode="normal" in2="BackgroundImageFix" result="effect1_dropShadow"/>
            <feBlend mode="normal" in="SourceGraphic" in2="effect1_dropShadow" result="shape"/>
        </filter>
    </defs>
</svg>
