<svg width="18" height="23" viewBox="0 0 18 23" fill="none" xmlns="http://www.w3.org/2000/svg">
    <path d="M8.90271 5.98096C8.30937 5.98096 7.72935 6.1569 7.236 6.48655C6.74265 6.81619 6.35814 7.28473 6.13107 7.83291C5.90401 8.38109 5.8446 8.98428 5.96036 9.56623C6.07611 10.1482 6.36183 10.6827 6.78139 11.1023C7.20095 11.5218 7.7355 11.8076 8.31744 11.9233C8.89938 12.0391 9.50258 11.9797 10.0508 11.7526C10.5989 11.5255 11.0675 11.141 11.3971 10.6477C11.7268 10.1543 11.9027 9.5743 11.9027 8.98096C11.9018 8.18559 11.5854 7.42305 11.023 6.86064C10.4606 6.29822 9.69808 5.98186 8.90271 5.98096ZM8.90271 10.481C8.60604 10.481 8.31603 10.393 8.06936 10.2282C7.82268 10.0633 7.63042 9.82907 7.51689 9.55498C7.40336 9.28089 7.37365 8.97929 7.43153 8.68832C7.48941 8.39735 7.63227 8.13008 7.84205 7.9203C8.05183 7.71052 8.3191 7.56766 8.61008 7.50978C8.90105 7.4519 9.20265 7.48161 9.47674 7.59514C9.75083 7.70867 9.98509 7.90093 10.1499 8.1476C10.3147 8.39428 10.4027 8.68428 10.4027 8.98096C10.4023 9.37864 10.2441 9.75991 9.96286 10.0411C9.68166 10.3223 9.30039 10.4805 8.90271 10.481Z" fill="black"/>
    <path d="M14.6675 3.21158C13.2422 1.7866 11.3395 0.940103 9.32673 0.835465C7.31396 0.730828 5.33378 1.37547 3.76836 2.64497C2.20295 3.91447 1.16326 5.71883 0.849971 7.70981C0.536682 9.7008 0.971997 11.7373 2.0719 13.4262L7.73942 22.1268C7.86554 22.3204 8.03799 22.4794 8.24113 22.5895C8.44427 22.6997 8.67167 22.7573 8.90274 22.7573C9.1338 22.7573 9.36121 22.6997 9.56435 22.5895C9.76749 22.4794 9.93993 22.3204 10.0661 22.1268L15.7338 13.4262C16.7543 11.8595 17.2054 9.98955 17.0112 8.12986C16.8171 6.27017 15.9896 4.53373 14.6675 3.21158ZM14.4769 12.6074L8.90276 21.1644L3.32853 12.6074C1.62227 9.98806 1.98823 6.48275 4.19867 4.27222C4.81641 3.65446 5.54978 3.16442 6.35691 2.83009C7.16405 2.49576 8.02913 2.32368 8.90276 2.32368C9.77639 2.32368 10.6415 2.49576 11.4486 2.83009C12.2557 3.16442 12.9891 3.65446 13.6069 4.27222C15.8173 6.48275 16.1832 9.98806 14.4769 12.6074Z" fill="black"/>
</svg>
