<svg width="142" height="49" viewBox="0 0 142 49" fill="none" xmlns="http://www.w3.org/2000/svg">
<path d="M19.392 17.784L11.616 36.056C10.8267 38.04 9.84533 39.4373 8.672 40.248C7.52 41.0587 6.12267 41.464 4.48 41.464C3.584 41.464 2.69867 41.3253 1.824 41.048C0.949333 40.7707 0.234667 40.3867 -0.32 39.896L1.504 36.344C1.888 36.6853 2.32533 36.952 2.816 37.144C3.328 37.336 3.82933 37.432 4.32 37.432C5.00267 37.432 5.55733 37.2613 5.984 36.92C6.41067 36.6 6.79467 36.056 7.136 35.288L7.2 35.128L-0.256 17.784H4.896L9.728 29.464L14.592 17.784H19.392ZM29.1523 35.256C27.3389 35.256 25.7069 34.8827 24.2563 34.136C22.8269 33.368 21.7069 32.312 20.8963 30.968C20.0856 29.624 19.6803 28.0987 19.6803 26.392C19.6803 24.6853 20.0856 23.16 20.8963 21.816C21.7069 20.472 22.8269 19.4267 24.2563 18.68C25.7069 17.912 27.3389 17.528 29.1523 17.528C30.9656 17.528 32.5869 17.912 34.0163 18.68C35.4456 19.4267 36.5656 20.472 37.3763 21.816C38.1869 23.16 38.5923 24.6853 38.5923 26.392C38.5923 28.0987 38.1869 29.624 37.3763 30.968C36.5656 32.312 35.4456 33.368 34.0163 34.136C32.5869 34.8827 30.9656 35.256 29.1523 35.256ZM29.1523 31.16C30.4323 31.16 31.4776 30.7333 32.2883 29.88C33.1203 29.0053 33.5363 27.8427 33.5363 26.392C33.5363 24.9413 33.1203 23.7893 32.2883 22.936C31.4776 22.0613 30.4323 21.624 29.1523 21.624C27.8723 21.624 26.8163 22.0613 25.9843 22.936C25.1523 23.7893 24.7363 24.9413 24.7363 26.392C24.7363 27.8427 25.1523 29.0053 25.9843 29.88C26.8163 30.7333 27.8723 31.16 29.1523 31.16ZM47.401 18.168H51.817V22.008H47.529V35H42.537V22.008H39.881V18.168H42.537V17.4C42.537 15.4373 43.113 13.88 44.265 12.728C45.4383 11.576 47.081 11 49.193 11C49.9397 11 50.6437 11.0853 51.305 11.256C51.9877 11.4053 52.553 11.6293 53.001 11.928L51.689 15.544C51.113 15.1387 50.441 14.936 49.673 14.936C48.1583 14.936 47.401 15.768 47.401 17.432V18.168ZM62.2773 35.256C60.4639 35.256 58.8319 34.8827 57.3813 34.136C55.9519 33.368 54.8319 32.312 54.0213 30.968C53.2106 29.624 52.8053 28.0987 52.8053 26.392C52.8053 24.6853 53.2106 23.16 54.0213 21.816C54.8319 20.472 55.9519 19.4267 57.3813 18.68C58.8319 17.912 60.4639 17.528 62.2773 17.528C64.0906 17.528 65.7119 17.912 67.1413 18.68C68.5706 19.4267 69.6906 20.472 70.5013 21.816C71.3119 23.16 71.7173 24.6853 71.7173 26.392C71.7173 28.0987 71.3119 29.624 70.5013 30.968C69.6906 32.312 68.5706 33.368 67.1413 34.136C65.7119 34.8827 64.0906 35.256 62.2773 35.256ZM62.2773 31.16C63.5573 31.16 64.6026 30.7333 65.4133 29.88C66.2453 29.0053 66.6613 27.8427 66.6613 26.392C66.6613 24.9413 66.2453 23.7893 65.4133 22.936C64.6026 22.0613 63.5573 21.624 62.2773 21.624C60.9973 21.624 59.9413 22.0613 59.1093 22.936C58.2773 23.7893 57.8613 24.9413 57.8613 26.392C57.8613 27.8427 58.2773 29.0053 59.1093 29.88C59.9413 30.7333 60.9973 31.16 62.2773 31.16ZM83.246 35.256C81.4327 35.256 79.8007 34.8827 78.35 34.136C76.9207 33.368 75.8007 32.312 74.99 30.968C74.1793 29.624 73.774 28.0987 73.774 26.392C73.774 24.6853 74.1793 23.16 74.99 21.816C75.8007 20.472 76.9207 19.4267 78.35 18.68C79.8007 17.912 81.4327 17.528 83.246 17.528C85.0593 17.528 86.6807 17.912 88.11 18.68C89.5393 19.4267 90.6593 20.472 91.47 21.816C92.2807 23.16 92.686 24.6853 92.686 26.392C92.686 28.0987 92.2807 29.624 91.47 30.968C90.6593 32.312 89.5393 33.368 88.11 34.136C86.6807 34.8827 85.0593 35.256 83.246 35.256ZM83.246 31.16C84.526 31.16 85.5713 30.7333 86.382 29.88C87.214 29.0053 87.63 27.8427 87.63 26.392C87.63 24.9413 87.214 23.7893 86.382 22.936C85.5713 22.0613 84.526 21.624 83.246 21.624C81.966 21.624 80.91 22.0613 80.078 22.936C79.246 23.7893 78.83 24.9413 78.83 26.392C78.83 27.8427 79.246 29.0053 80.078 29.88C80.91 30.7333 81.966 31.16 83.246 31.16ZM113.559 11.256V35H108.791V33.016C107.553 34.5093 105.761 35.256 103.415 35.256C101.793 35.256 100.321 34.8933 98.9988 34.168C97.6974 33.4427 96.6734 32.408 95.9268 31.064C95.1801 29.72 94.8068 28.1627 94.8068 26.392C94.8068 24.6213 95.1801 23.064 95.9268 21.72C96.6734 20.376 97.6974 19.3413 98.9988 18.616C100.321 17.8907 101.793 17.528 103.415 17.528C105.612 17.528 107.329 18.2213 108.567 19.608V11.256H113.559ZM104.279 31.16C105.537 31.16 106.583 30.7333 107.415 29.88C108.247 29.0053 108.663 27.8427 108.663 26.392C108.663 24.9413 108.247 23.7893 107.415 22.936C106.583 22.0613 105.537 21.624 104.279 21.624C102.999 21.624 101.943 22.0613 101.111 22.936C100.279 23.7893 99.8628 24.9413 99.8628 26.392C99.8628 27.8427 100.279 29.0053 101.111 29.88C101.943 30.7333 102.999 31.16 104.279 31.16Z" fill="white"/>
<path d="M58 39L56.5847 41.3018C55.6305 42.8536 54.3627 44.189 52.8624 45.2223V45.2223C51.6838 46.0341 50.3635 46.6517 48.9864 47.0412V47.0412C46.7813 47.6648 44.4261 47.7181 42.1984 47.1813L41.5059 47.0145C39.9525 46.6402 38.4812 45.9835 37.1653 45.0771V45.0771C35.8015 44.1378 34.6293 42.9471 33.7112 41.5689L32 39" stroke="white" stroke-width="2"/>
</svg>
