<svg width="115" height="39" viewBox="0 0 115 39" fill="none" xmlns="http://www.w3.org/2000/svg">
    <path d="M19.9545 6.784L12.1785 25.056C11.3892 27.04 10.4078 28.4373 9.2345 29.248C8.0825 30.0587 6.68517 30.464 5.0425 30.464C4.1465 30.464 3.26117 30.3253 2.3865 30.048C1.51183 29.7707 0.797167 29.3867 0.2425 28.896L2.0665 25.344C2.4505 25.6853 2.88783 25.952 3.3785 26.144C3.8905 26.336 4.39183 26.432 4.8825 26.432C5.56517 26.432 6.11983 26.2613 6.5465 25.92C6.97317 25.6 7.35717 25.056 7.6985 24.288L7.7625 24.128L0.3065 6.784H5.4585L10.2905 18.464L15.1545 6.784H19.9545ZM29.7148 24.256C27.9014 24.256 26.2694 23.8827 24.8188 23.136C23.3894 22.368 22.2694 21.312 21.4588 19.968C20.6481 18.624 20.2428 17.0987 20.2428 15.392C20.2428 13.6853 20.6481 12.16 21.4588 10.816C22.2694 9.472 23.3894 8.42667 24.8188 7.68C26.2694 6.912 27.9014 6.528 29.7148 6.528C31.5281 6.528 33.1494 6.912 34.5788 7.68C36.0081 8.42667 37.1281 9.472 37.9388 10.816C38.7494 12.16 39.1548 13.6853 39.1548 15.392C39.1548 17.0987 38.7494 18.624 37.9388 19.968C37.1281 21.312 36.0081 22.368 34.5788 23.136C33.1494 23.8827 31.5281 24.256 29.7148 24.256ZM29.7148 20.16C30.9948 20.16 32.0401 19.7333 32.8508 18.88C33.6828 18.0053 34.0988 16.8427 34.0988 15.392C34.0988 13.9413 33.6828 12.7893 32.8508 11.936C32.0401 11.0613 30.9948 10.624 29.7148 10.624C28.4348 10.624 27.3788 11.0613 26.5468 11.936C25.7148 12.7893 25.2988 13.9413 25.2988 15.392C25.2988 16.8427 25.7148 18.0053 26.5468 18.88C27.3788 19.7333 28.4348 20.16 29.7148 20.16ZM47.9635 7.168H52.3795V11.008H48.0915V24H43.0995V11.008H40.4435V7.168H43.0995V6.4C43.0995 4.43733 43.6755 2.88 44.8275 1.728C46.0008 0.575998 47.6435 -1.90735e-06 49.7555 -1.90735e-06C50.5022 -1.90735e-06 51.2062 0.0853316 51.8675 0.255999C52.5502 0.405333 53.1155 0.629333 53.5635 0.927999L52.2515 4.544C51.6755 4.13867 51.0035 3.936 50.2355 3.936C48.7208 3.936 47.9635 4.768 47.9635 6.432V7.168ZM62.8398 24.256C61.0264 24.256 59.3944 23.8827 57.9438 23.136C56.5144 22.368 55.3944 21.312 54.5838 19.968C53.7731 18.624 53.3678 17.0987 53.3678 15.392C53.3678 13.6853 53.7731 12.16 54.5838 10.816C55.3944 9.472 56.5144 8.42667 57.9438 7.68C59.3944 6.912 61.0264 6.528 62.8398 6.528C64.6531 6.528 66.2744 6.912 67.7038 7.68C69.1331 8.42667 70.2531 9.472 71.0638 10.816C71.8744 12.16 72.2798 13.6853 72.2798 15.392C72.2798 17.0987 71.8744 18.624 71.0638 19.968C70.2531 21.312 69.1331 22.368 67.7038 23.136C66.2744 23.8827 64.6531 24.256 62.8398 24.256ZM62.8398 20.16C64.1198 20.16 65.1651 19.7333 65.9758 18.88C66.8078 18.0053 67.2238 16.8427 67.2238 15.392C67.2238 13.9413 66.8078 12.7893 65.9758 11.936C65.1651 11.0613 64.1198 10.624 62.8398 10.624C61.5598 10.624 60.5038 11.0613 59.6718 11.936C58.8398 12.7893 58.4238 13.9413 58.4238 15.392C58.4238 16.8427 58.8398 18.0053 59.6718 18.88C60.5038 19.7333 61.5598 20.16 62.8398 20.16ZM83.8085 24.256C81.9952 24.256 80.3632 23.8827 78.9125 23.136C77.4832 22.368 76.3632 21.312 75.5525 19.968C74.7418 18.624 74.3365 17.0987 74.3365 15.392C74.3365 13.6853 74.7418 12.16 75.5525 10.816C76.3632 9.472 77.4832 8.42667 78.9125 7.68C80.3632 6.912 81.9952 6.528 83.8085 6.528C85.6218 6.528 87.2432 6.912 88.6725 7.68C90.1018 8.42667 91.2218 9.472 92.0325 10.816C92.8432 12.16 93.2485 13.6853 93.2485 15.392C93.2485 17.0987 92.8432 18.624 92.0325 19.968C91.2218 21.312 90.1018 22.368 88.6725 23.136C87.2432 23.8827 85.6218 24.256 83.8085 24.256ZM83.8085 20.16C85.0885 20.16 86.1338 19.7333 86.9445 18.88C87.7765 18.0053 88.1925 16.8427 88.1925 15.392C88.1925 13.9413 87.7765 12.7893 86.9445 11.936C86.1338 11.0613 85.0885 10.624 83.8085 10.624C82.5285 10.624 81.4725 11.0613 80.6405 11.936C79.8085 12.7893 79.3925 13.9413 79.3925 15.392C79.3925 16.8427 79.8085 18.0053 80.6405 18.88C81.4725 19.7333 82.5285 20.16 83.8085 20.16ZM114.121 0.255999V24H109.353V22.016C108.116 23.5093 106.324 24.256 103.977 24.256C102.356 24.256 100.884 23.8933 99.5613 23.168C98.2599 22.4427 97.2359 21.408 96.4893 20.064C95.7426 18.72 95.3693 17.1627 95.3693 15.392C95.3693 13.6213 95.7426 12.064 96.4893 10.72C97.2359 9.376 98.2599 8.34133 99.5613 7.616C100.884 6.89067 102.356 6.528 103.977 6.528C106.175 6.528 107.892 7.22133 109.129 8.608V0.255999H114.121ZM104.841 20.16C106.1 20.16 107.145 19.7333 107.977 18.88C108.809 18.0053 109.225 16.8427 109.225 15.392C109.225 13.9413 108.809 12.7893 107.977 11.936C107.145 11.0613 106.1 10.624 104.841 10.624C103.561 10.624 102.505 11.0613 101.673 11.936C100.841 12.7893 100.425 13.9413 100.425 15.392C100.425 16.8427 100.841 18.0053 101.673 18.88C102.505 19.7333 103.561 20.16 104.841 20.16Z" fill="#5FA874"/>
    <path d="M59 28.3845L57.5179 30.9596C56.6077 32.5413 55.3787 33.9165 53.9089 34.9981L53.8414 35.0478C52.6774 35.9044 51.3756 36.5557 49.9922 36.9737V36.9737C47.7709 37.645 45.408 37.694 43.1608 37.1156L42.6056 36.9727C40.9875 36.5561 39.4644 35.8331 38.1186 34.8428V34.8428C36.7856 33.8619 35.6511 32.6366 34.7755 31.2322L33 28.3845" stroke="#5FA874" stroke-width="2"/>
</svg>
