<svg width="142" height="49" viewBox="0 0 142 49" fill="none" xmlns="http://www.w3.org/2000/svg">
<path d="M32.4545 17.784L24.6785 36.056C23.8892 38.04 22.9078 39.4373 21.7345 40.248C20.5825 41.0587 19.1852 41.464 17.5425 41.464C16.6465 41.464 15.7612 41.3253 14.8865 41.048C14.0118 40.7707 13.2972 40.3867 12.7425 39.896L14.5665 36.344C14.9505 36.6853 15.3878 36.952 15.8785 37.144C16.3905 37.336 16.8918 37.432 17.3825 37.432C18.0652 37.432 18.6198 37.2613 19.0465 36.92C19.4732 36.6 19.8572 36.056 20.1985 35.288L20.2625 35.128L12.8065 17.784H17.9585L22.7905 29.464L27.6545 17.784H32.4545ZM42.2148 35.256C40.4014 35.256 38.7694 34.8827 37.3188 34.136C35.8894 33.368 34.7694 32.312 33.9588 30.968C33.1481 29.624 32.7428 28.0987 32.7428 26.392C32.7428 24.6853 33.1481 23.16 33.9588 21.816C34.7694 20.472 35.8894 19.4267 37.3188 18.68C38.7694 17.912 40.4014 17.528 42.2148 17.528C44.0281 17.528 45.6494 17.912 47.0788 18.68C48.5081 19.4267 49.6281 20.472 50.4388 21.816C51.2494 23.16 51.6548 24.6853 51.6548 26.392C51.6548 28.0987 51.2494 29.624 50.4388 30.968C49.6281 32.312 48.5081 33.368 47.0788 34.136C45.6494 34.8827 44.0281 35.256 42.2148 35.256ZM42.2148 31.16C43.4948 31.16 44.5401 30.7333 45.3508 29.88C46.1828 29.0053 46.5988 27.8427 46.5988 26.392C46.5988 24.9413 46.1828 23.7893 45.3508 22.936C44.5401 22.0613 43.4948 21.624 42.2148 21.624C40.9348 21.624 39.8788 22.0613 39.0468 22.936C38.2148 23.7893 37.7988 24.9413 37.7988 26.392C37.7988 27.8427 38.2148 29.0053 39.0468 29.88C39.8788 30.7333 40.9348 31.16 42.2148 31.16ZM60.4635 18.168H64.8795V22.008H60.5915V35H55.5995V22.008H52.9435V18.168H55.5995V17.4C55.5995 15.4373 56.1755 13.88 57.3275 12.728C58.5008 11.576 60.1435 11 62.2555 11C63.0022 11 63.7062 11.0853 64.3675 11.256C65.0502 11.4053 65.6155 11.6293 66.0635 11.928L64.7515 15.544C64.1755 15.1387 63.5035 14.936 62.7355 14.936C61.2208 14.936 60.4635 15.768 60.4635 17.432V18.168ZM75.3398 35.256C73.5264 35.256 71.8944 34.8827 70.4438 34.136C69.0144 33.368 67.8944 32.312 67.0838 30.968C66.2731 29.624 65.8678 28.0987 65.8678 26.392C65.8678 24.6853 66.2731 23.16 67.0838 21.816C67.8944 20.472 69.0144 19.4267 70.4438 18.68C71.8944 17.912 73.5264 17.528 75.3398 17.528C77.1531 17.528 78.7744 17.912 80.2038 18.68C81.6331 19.4267 82.7531 20.472 83.5638 21.816C84.3744 23.16 84.7798 24.6853 84.7798 26.392C84.7798 28.0987 84.3744 29.624 83.5638 30.968C82.7531 32.312 81.6331 33.368 80.2038 34.136C78.7744 34.8827 77.1531 35.256 75.3398 35.256ZM75.3398 31.16C76.6198 31.16 77.6651 30.7333 78.4758 29.88C79.3078 29.0053 79.7238 27.8427 79.7238 26.392C79.7238 24.9413 79.3078 23.7893 78.4758 22.936C77.6651 22.0613 76.6198 21.624 75.3398 21.624C74.0598 21.624 73.0038 22.0613 72.1718 22.936C71.3398 23.7893 70.9238 24.9413 70.9238 26.392C70.9238 27.8427 71.3398 29.0053 72.1718 29.88C73.0038 30.7333 74.0598 31.16 75.3398 31.16ZM96.3085 35.256C94.4952 35.256 92.8632 34.8827 91.4125 34.136C89.9832 33.368 88.8632 32.312 88.0525 30.968C87.2418 29.624 86.8365 28.0987 86.8365 26.392C86.8365 24.6853 87.2418 23.16 88.0525 21.816C88.8632 20.472 89.9832 19.4267 91.4125 18.68C92.8632 17.912 94.4952 17.528 96.3085 17.528C98.1218 17.528 99.7432 17.912 101.173 18.68C102.602 19.4267 103.722 20.472 104.533 21.816C105.343 23.16 105.749 24.6853 105.749 26.392C105.749 28.0987 105.343 29.624 104.533 30.968C103.722 32.312 102.602 33.368 101.173 34.136C99.7432 34.8827 98.1218 35.256 96.3085 35.256ZM96.3085 31.16C97.5885 31.16 98.6338 30.7333 99.4445 29.88C100.277 29.0053 100.693 27.8427 100.693 26.392C100.693 24.9413 100.277 23.7893 99.4445 22.936C98.6338 22.0613 97.5885 21.624 96.3085 21.624C95.0285 21.624 93.9725 22.0613 93.1405 22.936C92.3085 23.7893 91.8925 24.9413 91.8925 26.392C91.8925 27.8427 92.3085 29.0053 93.1405 29.88C93.9725 30.7333 95.0285 31.16 96.3085 31.16ZM126.621 11.256V35H121.853V33.016C120.616 34.5093 118.824 35.256 116.477 35.256C114.856 35.256 113.384 34.8933 112.061 34.168C110.76 33.4427 109.736 32.408 108.989 31.064C108.243 29.72 107.869 28.1627 107.869 26.392C107.869 24.6213 108.243 23.064 108.989 21.72C109.736 20.376 110.76 19.3413 112.061 18.616C113.384 17.8907 114.856 17.528 116.477 17.528C118.675 17.528 120.392 18.2213 121.629 19.608V11.256H126.621ZM117.341 31.16C118.6 31.16 119.645 30.7333 120.477 29.88C121.309 29.0053 121.725 27.8427 121.725 26.392C121.725 24.9413 121.309 23.7893 120.477 22.936C119.645 22.0613 118.6 21.624 117.341 21.624C116.061 21.624 115.005 22.0613 114.173 22.936C113.341 23.7893 112.925 24.9413 112.925 26.392C112.925 27.8427 113.341 29.0053 114.173 29.88C115.005 30.7333 116.061 31.16 117.341 31.16Z" fill="#1B7070"/>
<path d="M71 39L69.5847 41.3018C68.6305 42.8536 67.3627 44.189 65.8624 45.2223V45.2223C64.6838 46.0341 63.3635 46.6517 61.9864 47.0412V47.0412C59.7813 47.6648 57.4261 47.7181 55.1984 47.1813L54.5059 47.0145C52.9525 46.6402 51.4812 45.9835 50.1653 45.0771V45.0771C48.8015 44.1378 47.6293 42.9471 46.7112 41.5689L45 39" stroke="#1B7070" stroke-width="2"/>
</svg>
